<svg width="68" height="35" viewBox="0 0 68 35" fill="none" xmlns="http://www.w3.org/2000/svg">
<path d="M61.5333 3.66667H5.8C4.01667 3.66667 2.66667 4.9 2.66667 6.41667V28.5833C2.66667 30.1 4.01667 31.3333 5.8 31.3333H61.5333C63.3167 31.3333 64.6667 30.1 64.6667 28.5833V6.41667C64.6667 4.9 63.3167 3.66667 61.5333 3.66667Z" fill="#FFD100"/>
<path d="M60.8333 0.5H6.5C3.18333 0.5 0.5 3.18333 0.5 6.5V28.5C0.5 31.8167 3.18333 34.5 6.5 34.5H60.8333C64.15 34.5 66.8333 31.8167 66.8333 28.5V6.5C66.8333 3.18333 64.15 0.5 60.8333 0.5ZM61.5333 31.3333H5.8C4.01667 31.3333 2.66667 30.1 2.66667 28.5833V6.41667C2.66667 4.9 4.01667 3.66667 5.8 3.66667H61.5333C63.3167 3.66667 64.6667 4.9 64.6667 6.41667V28.5833C64.6667 30.1 63.3167 31.3333 61.5333 31.3333Z" fill="#231F20"/>
<path d="M29.5125 24.325H37.8375V26.5833H29.5125V24.325Z" fill="#231F20"/>
<path d="M11.9722 10.9417H28.2347L27.0572 13.9182H13.1497L11.9722 10.9417Z" fill="#231F20"/>
<path d="M39.6917 10.9417H55.9542L54.7767 13.9182H40.8692L39.6917 10.9417Z" fill="#231F20"/>
<path d="M28.4983 14.8333H39.4233V23.4167H28.4983V14.8333Z" fill="#231F20"/>
</svg>
